# xmcd CD database file
#
# Track frame offsets:
#	150
#	27827
#	50013
#	69084
#	91062
#	100525
#	130518
#	168966
#	190894
#	207416
#	243122
#
# Disc length: 3424 seconds
#
# Revision: 0
# Processed by: cddbd v1.5.2PL0 Copyright (c) Steve Scherf et al.
# Submitted via: CDex 1.51
#
DISCID=800d5e0b
DTITLE=Vijay Iyer - Solo
DYEAR=2010
DGENRE=Jazz
TTITLE0=Human Nature
TTITLE1=Epistrophy
TTITLE2=Darn That Dream
TTITLE3=Black and Tan Fantasy
TTITLE4=Prelude: Heartpiece
TTITLE5=Autoscopy
TTITLE6=Patterns
TTITLE7=Desiring
TTITLE8=Games
TTITLE9=Fleurette Africaine
TTITLE10=One for Blount
EXTD=YEAR: 2010
EXTT0=
EXTT1=
EXTT2=
EXTT3=
EXTT4=
EXTT5=
EXTT6=
EXTT7=
EXTT8=
EXTT9=
EXTT10=
PLAYORDER=
